<?xml version="1.0" encoding="utf-8"?>
<!-- Generator: Adobe Illustrator 23.0.0, SVG Export Plug-In . SVG Version: 6.00 Build 0)  -->
<svg version="1.1" id="Layer_1" xmlns="http://www.w3.org/2000/svg" xmlns:xlink="http://www.w3.org/1999/xlink" x="0px" y="0px"
	 viewBox="0 0 119.5 25.5" style="enable-background:new 0 0 119.5 25.5;" xml:space="preserve">
<style type="text/css">
	.st0{fill:#2C4A26;}
	.st1{clip-path:url(#SVGID_2_);}
</style>
<title>logo-codecol</title>
<g>
	<g id="Logo_codecol">
		<path class="st0" d="M30.1,19.3c0.3,0,0.5,0,0.7,0.1c0.5,0.2,0.8,0.5,1,1c0.1,0.2,0.1,0.5,0.1,0.8c0,0.2,0,0.5-0.1,0.7
			c-0.1,0.2-0.2,0.4-0.4,0.6c-0.2,0.2-0.4,0.3-0.6,0.4C30.6,23,30.4,23,30.1,23c-0.3,0-0.5,0-0.7-0.1c-0.2-0.1-0.4-0.2-0.6-0.4
			c-0.2-0.2-0.3-0.4-0.4-0.6c-0.3-0.7-0.1-1.5,0.4-2.1c0.2-0.2,0.4-0.3,0.6-0.4C29.6,19.3,29.8,19.3,30.1,19.3z M30.1,19.6
			c-0.2,0-0.4,0-0.6,0.1c-0.2,0.1-0.3,0.2-0.5,0.3c-0.1,0.1-0.2,0.3-0.3,0.5c-0.2,0.6-0.1,1.2,0.3,1.7c0.1,0.1,0.3,0.3,0.5,0.3
			c0.2,0.1,0.4,0.1,0.6,0.1c0.2,0,0.4,0,0.6-0.1c0.2-0.1,0.3-0.2,0.5-0.3c0.1-0.1,0.2-0.3,0.3-0.5c0.1-0.2,0.1-0.4,0.1-0.6
			c0-0.2,0-0.4-0.1-0.6c-0.1-0.2-0.2-0.4-0.3-0.5c-0.1-0.2-0.3-0.3-0.5-0.4C30.5,19.6,30.3,19.6,30.1,19.6z M30.6,22.2l-0.6-1h-0.2
			v1h-0.3v-2.1H30c0.2,0,0.4,0,0.5,0.1c0.1,0.1,0.2,0.2,0.2,0.4c0,0.1,0,0.1,0,0.2c0,0.1-0.1,0.1-0.1,0.2l-0.1,0.1h-0.1l0.6,1.1
			L30.6,22.2z M30,21c0.1,0,0.2,0,0.3-0.1c0.1-0.1,0.1-0.2,0.1-0.3c0-0.1,0-0.2-0.1-0.2c-0.1-0.1-0.2-0.1-0.3-0.1h-0.2V21L30,21z"/>
		<path class="st0" d="M13.6,21.8c-0.5-1.2-2.8-2.1-3.8-2.9c-0.9-0.7-3.3-3.1-2.4-4.2c0.7-0.8,2.1,0.4,2.6,0.9
			c0.5,0.5,1,1.4,1.6,1.1c0.9-0.5,1.1-1.3,0.1-3.5s-1.4-4.1-0.8-4.7s1.4-0.6,2,0.9c0.3,0.6,1.1,3.7,1.3,4c0.2,0.3,0.4,1.2,0.8-1.6
			s0.2-5.4,1.7-5.3s1.2,1.6,1,3s-0.9,4.6-0.5,4.6s1.3-2,2-3.4s1.3-2,2.3-1.5s0.5,1.8-0.7,3.7s-1.7,2.7-0.6,2.7s2.3-2.5,3.2-2.7
			s1.4,1.2,0.5,2.2c-1,1.1-2,2.3-2.8,3.5c-1.1,1.6-1.8,3.9-0.5,4.1c3.4,0.6,7.6-3.1,8-7.8c0.5-5.9-5.1-12.5-11.1-13
			S4.4,6.3,3.8,12.3c-0.4,5.2,3.1,9.9,8.2,10.8C13.2,23.3,14,22.6,13.6,21.8z"/>
		<g>
			<defs>
				<path id="SVGID_1_" d="M13.6,21.8c-0.5-1.2-2.8-2.1-3.8-2.9c-0.9-0.7-3.3-3.1-2.4-4.2c0.7-0.8,2.1,0.4,2.6,0.9
					c0.5,0.5,1,1.4,1.6,1.1c0.9-0.5,1.1-1.3,0.1-3.5s-1.4-4.1-0.8-4.7s1.4-0.6,2,0.9c0.3,0.6,1.1,3.7,1.3,4c0.2,0.3,0.4,1.2,0.8-1.6
					s0.2-5.4,1.7-5.3s1.2,1.6,1,3s-0.9,4.6-0.5,4.6s1.3-2,2-3.4s1.3-2,2.3-1.5s0.5,1.8-0.7,3.7s-1.7,2.7-0.6,2.7s2.3-2.5,3.2-2.7
					s1.4,1.2,0.5,2.2c-1,1.1-2,2.3-2.8,3.5c-1.1,1.6-1.8,3.9-0.5,4.1c3.4,0.6,7.6-3.1,8-7.8c0.5-5.9-5.1-12.5-11.1-13
					S4.4,6.3,3.8,12.3c-0.4,5.2,3.1,9.9,8.2,10.8C13.2,23.3,14,22.6,13.6,21.8z"/>
			</defs>
			<clipPath id="SVGID_2_">
				<use xlink:href="#SVGID_1_"  style="overflow:visible;"/>
			</clipPath>
			<g class="st1">
				<rect x="-2" y="-16.4" class="st0" width="44.2" height="43.8"/>
			</g>
		</g>
		<path class="st0" d="M62.2,17.4c0,3.4-2.8,5.5-6,5.5s-6-2.1-6-5.5s2.8-5.5,6-5.5S62.2,14.1,62.2,17.4z M53.5,17.4
			c0,1.8,0.8,3.4,2.7,3.4c1.6,0,2.7-1.6,2.7-3.4S57.8,14,56.2,14C54.3,14,53.5,15.6,53.5,17.4z"/>
		<path class="st0" d="M72.1,22.7L72,21.9c-0.9,0.7-2.1,1.1-3.3,1.1c-2.9,0-4.9-1.9-4.9-5.3c0-3.6,2.4-5.7,5.1-5.7
			c1.1-0.1,2.1,0.2,3.1,0.6V5.8h3.2v17L72.1,22.7z M69.6,14c-1.2,0-2.5,1-2.5,3.6s1.2,3.2,2.5,3.2c0.9,0,1.7-0.3,2.4-0.8v-5.5
			C71.3,14.1,70.5,13.9,69.6,14z"/>
		<path class="st0" d="M94.9,11.9c1.2-0.1,2.5,0.1,3.7,0.6L98,14.4c-0.8-0.3-1.7-0.5-2.6-0.4c-1.8,0.1-3.1,1.7-3,3.4c0,0,0,0,0,0
			c-0.1,1.8,1.2,3.3,2.9,3.4c0,0,0,0,0.1,0c0.9,0,1.8-0.1,2.7-0.5l0.7,1.7c-1.2,0.6-2.5,0.9-3.8,0.8c-3.4,0-5.8-2.2-5.8-5.5
			C89.2,14.3,91.8,11.9,94.9,11.9z"/>
		<path class="st0" d="M111.3,17.4c0,3.4-2.8,5.5-6,5.5s-6-2.1-6-5.5s2.8-5.5,6-5.5S111.3,14.1,111.3,17.4z M102.5,17.4
			c0,1.8,0.8,3.4,2.7,3.4c1.6,0,2.7-1.6,2.7-3.4s-1.1-3.4-2.7-3.4C103.4,14,102.5,15.6,102.5,17.4z"/>
		<path class="st0" d="M49.2,21.8c-1.8,0.9-3.7,1.3-5.7,1.2c-4.5,0.2-8.3-3.3-8.5-7.8c0-0.2,0-0.3,0-0.5c-0.1-4.5,3.5-8.3,8-8.4
			c0.2,0,0.3,0,0.5,0c3.3,0,4.9,0.8,5.6,1.2l-1,2.3c-1.3-0.6-2.8-1-4.2-0.9c-2.6,0-4.8,2.3-4.8,5.8s2.3,5.7,4.9,5.7
			c1.5,0,3-0.3,4.3-0.9L49.2,21.8z"/>
		<path class="st0" d="M113.3,5.8h3.2v14.1c0,1.2,0.3,1.7,1,2c-0.5,0.7-1.3,1.1-2.2,1.1c-1.1,0-2-0.8-2-1.8c0-0.1,0-0.2,0-0.3
			L113.3,5.8z"/>
		<path class="st0" d="M80.6,17.8c0.1,2.5,1.8,3,3.1,3c0.9,0.1,1.9-0.1,2.8-0.5l0.6,1.8c-1.2,0.5-2.5,0.8-3.9,0.8
			c-3.4,0-5.9-2.1-5.9-5.4c-0.2-3,2.1-5.5,5.1-5.7c0.1,0,0.2,0,0.3,0c3.5,0,4.7,2.5,4.7,4.8c0,0.9-0.3,1.1-1.1,1.1L80.6,17.8z
			 M84.2,16.1c-0.1-0.5-0.3-2.1-1.8-2.1s-1.7,1.2-1.8,2.1H84.2z"/>
	</g>
</g>
</svg>
